<svg xmlns="http://www.w3.org/2000/svg" width="420" height="595" viewBox="0 0 420 595" fill="none">
<rect x="0.5" y="0.5" width="419" height="594" fill="white" fill-opacity="0.51"/>
<line y1="33.5" x2="420" y2="33.5" stroke="#600000" stroke-width="5"/>
<line y1="54.5" x2="420" y2="54.5" stroke="black" stroke-opacity="0.35"/>
<line y1="258.5" x2="420" y2="258.5" stroke="black" stroke-opacity="0.35"/>
<line y1="462.5" x2="420" y2="462.5" stroke="black" stroke-opacity="0.35"/>
<line y1="156.5" x2="420" y2="156.5" stroke="black" stroke-opacity="0.35"/>
<line y1="360.5" x2="420" y2="360.5" stroke="black" stroke-opacity="0.35"/>
<line y1="564.5" x2="420" y2="564.5" stroke="black" stroke-opacity="0.35"/>
<line y1="105.5" x2="420" y2="105.5" stroke="black" stroke-opacity="0.35"/>
<line y1="309.5" x2="420" y2="309.5" stroke="black" stroke-opacity="0.35"/>
<line y1="513.5" x2="420" y2="513.5" stroke="black" stroke-opacity="0.35"/>
<line y1="207.5" x2="420" y2="207.5" stroke="black" stroke-opacity="0.35"/>
<line y1="411.5" x2="420" y2="411.5" stroke="black" stroke-opacity="0.35"/>
<line y1="71.5" x2="420" y2="71.5" stroke="black" stroke-opacity="0.35"/>
<line y1="275.5" x2="420" y2="275.5" stroke="black" stroke-opacity="0.35"/>
<line y1="479.5" x2="420" y2="479.5" stroke="black" stroke-opacity="0.35"/>
<line y1="173.5" x2="420" y2="173.5" stroke="black" stroke-opacity="0.35"/>
<line y1="377.5" x2="420" y2="377.5" stroke="black" stroke-opacity="0.35"/>
<line y1="581.5" x2="420" y2="581.5" stroke="black" stroke-opacity="0.35"/>
<line y1="122.5" x2="420" y2="122.5" stroke="black" stroke-opacity="0.35"/>
<line y1="326.5" x2="420" y2="326.5" stroke="black" stroke-opacity="0.35"/>
<line y1="530.5" x2="420" y2="530.5" stroke="black" stroke-opacity="0.35"/>
<line y1="224.5" x2="420" y2="224.5" stroke="black" stroke-opacity="0.35"/>
<line y1="428.5" x2="420" y2="428.5" stroke="black" stroke-opacity="0.35"/>
<line y1="88.5" x2="420" y2="88.5" stroke="black" stroke-opacity="0.35"/>
<line y1="292.5" x2="420" y2="292.5" stroke="black" stroke-opacity="0.35"/>
<line y1="496.5" x2="420" y2="496.5" stroke="black" stroke-opacity="0.35"/>
<line y1="190.5" x2="420" y2="190.5" stroke="black" stroke-opacity="0.35"/>
<line y1="394.5" x2="420" y2="394.5" stroke="black" stroke-opacity="0.35"/>
<line y1="139.5" x2="420" y2="139.5" stroke="black" stroke-opacity="0.35"/>
<line y1="343.5" x2="420" y2="343.5" stroke="black" stroke-opacity="0.35"/>
<line y1="547.5" x2="420" y2="547.5" stroke="black" stroke-opacity="0.35"/>
<line y1="241.5" x2="420" y2="241.5" stroke="black" stroke-opacity="0.35"/>
<line y1="445.5" x2="420" y2="445.5" stroke="black" stroke-opacity="0.35"/>
<rect x="0.5" y="0.5" width="419" height="594" stroke="#0865D1"/>
</svg>